<svg xmlns="http://www.w3.org/2000/svg" viewBox="0 0 256 256" fill="#000000" id="Chalkboard-Simple-Thin--Streamline-Phosphor-Thin"><desc>Chalkboard Simple Thin Streamline Icon: https://streamlinehq.com</desc><path d="M249.1145 205.8593h-12.9766v-30.2786c0 -2.3889 -1.9366 -4.3254 -4.3255 -4.3255h-69.2083c-2.389 -0.0001 -4.3255 1.9365 -4.3255 4.3255v30.2786H28.5131V54.4662c0 -2.389 1.9365 -4.3256 4.3255 -4.3255h190.3228c2.389 -0.0001 4.3255 1.9365 4.3255 4.3255v86.5103c0.0051 3.3298 3.6128 5.4055 6.494 3.7362 1.3331 -0.7724 2.1547 -2.1955 2.157 -3.7362V54.4662c0 -7.1667 -5.8098 -12.9765 -12.9765 -12.9765H32.8386c-7.167 -0.0004 -12.9765 5.8095 -12.9765 12.9765v151.3931H6.8855c-3.3298 0.0051 -5.4054 3.6128 -3.7361 6.494 0.7723 1.3331 2.1955 2.1547 3.7361 2.157h242.229c3.3298 -0.005 5.4054 -3.6128 3.7361 -6.4939 -0.7723 -1.3331 -2.1955 -2.1548 -3.7361 -2.1571Zm-82.1849 -25.9531h60.5573v25.9531h-60.5573Z" stroke-width="1"></path></svg>