<svg class="svg-icon" style="width: 1em;height: 1em;vertical-align: middle;fill: currentColor;overflow: hidden;" viewBox="0 0 1024 1024" version="1.1" xmlns="http://www.w3.org/2000/svg"><path d="M832.626215 763.46244c54.396699-69.251805 86.839851-156.56582 86.839851-251.456438 0-225.009347-182.3987-407.408047-407.408046-407.408046-48.944825 0-95.872956 8.64097-139.347901 24.464409 165.398856 86.761824 384.178061 369.835131 459.918097 634.412079z" fill="#0288D1" /><path d="M453.695958 364.473288c-63.553847-68.465535-134.726312-122.842227-210.102223-158.904624-85.167276 74.673669-138.953765 184.267342-138.953765 306.429335 0 102.723311 38.031073 196.547563 100.764638 268.212198 55.30101-166.155116 159.268749-326.292163 248.301353-415.742911zM528.773766 456.857045c-88.200319 95.056676-176.08853 261.451874-207.897465 414.972646 57.015599 30.354434 122.081966 47.582356 191.187721 47.582357 71.04042 0 137.823377-18.200256 195.969364-50.165244-33.515521-154.863234-96.783269-296.689987-179.243615-412.395761z" fill="#E53935" /></svg>